<svg viewBox="0 0 24 24" xmlns="http://www.w3.org/2000/svg"><path d="M9.487 4.163v14.623l3.262 1.05V7.574c0-.575.254-.959.662-.825.53.15.633.678.633 1.254v4.895c2.035.995 3.635-.001 3.635-2.626 0-2.698-.938-3.896-3.698-4.856-1.09-.373-3.107-.988-4.492-1.252Zm3.88 13.534 5.247-1.895c.595-.215.688-.521.205-.682-.489-.16-1.365-.116-1.965.102l-3.504 1.25v-1.989l.2-.07s1.001-.35 2.428-.513c1.413-.15 3.154.025 4.53.55 1.54.502 1.7 1.227 1.314 1.727-.388.5-1.352.864-1.352.864l-7.12 2.589v-1.913Zm-9.86-.197c-1.584-.454-1.846-1.39-1.127-1.933.667-.489 1.8-.877 1.8-.877l4.679-1.678v1.928l-3.355 1.227c-.587.225-.687.526-.199.688.489.162 1.364.125 1.953-.1l1.615-.588v1.728c-.1.025-.214.037-.325.06-1.616.277-3.33.164-5.032-.398z" style="stroke-width:1"/></svg>