<svg viewBox="0 0 24 24" xmlns="http://www.w3.org/2000/svg"><path d="M7.588 3.351a2.458 2.458 0 0 0-1.17.226l-.002.001A10.14 10.14 0 0 0 4.968 4.77l.01-.005v.001a.614.614 0 0 1 .237-.037c.496 0 1.67.362 4.042 2.73-2.079 2.46-6.191 8.521-5.151 10.78l.001.001c.37.474.781.915 1.23 1.316C3.82 17.92 8.998 12.241 12 9.972c2.994 2.262 8.146 7.91 6.68 9.568.442-.397.848-.832 1.213-1.3 1.046-2.253-3.07-8.32-5.149-10.782 2.373-2.366 3.545-2.731 4.043-2.731.108 0 .184.02.237.038.012.004.009.005.018.01a10.096 10.096 0 0 0-1.382-1.156c-.106-.064-.538-.293-1.246-.268C14.479 3.421 12 4.865 12 4.865v.005S9.523 3.42 7.588 3.35z"/></svg>